<?xml version="1.0" standalone="no"?>
<svg xmlns:xlink="http://www.w3.org/1999/xlink" id="wave" style="transform:rotate(180deg); transition: 0.3s" viewBox="0 0 1440 100" version="1.1" xmlns="http://www.w3.org/2000/svg"><defs><linearGradient id="sw-gradient-0" x1="0" x2="0" y1="1" y2="0"><stop stop-color="rgba(49, 23, 16, 1)" offset="0%"/><stop stop-color="rgba(49, 23, 16, 1)" offset="100%"/></linearGradient></defs><path style="transform:translate(0, 0px); opacity:1" fill="url(#sw-gradient-0)" d="M0,70L40,66.7C80,63,160,57,240,48.3C320,40,400,30,480,36.7C560,43,640,67,720,65C800,63,880,37,960,36.7C1040,37,1120,63,1200,73.3C1280,83,1360,77,1440,70C1520,63,1600,57,1680,58.3C1760,60,1840,70,1920,63.3C2000,57,2080,33,2160,26.7C2240,20,2320,30,2400,35C2480,40,2560,40,2640,46.7C2720,53,2800,67,2880,60C2960,53,3040,27,3120,21.7C3200,17,3280,33,3360,38.3C3440,43,3520,37,3600,30C3680,23,3760,17,3840,23.3C3920,30,4000,50,4080,48.3C4160,47,4240,23,4320,26.7C4400,30,4480,60,4560,65C4640,70,4720,50,4800,36.7C4880,23,4960,17,5040,16.7C5120,17,5200,23,5280,33.3C5360,43,5440,57,5520,51.7C5600,47,5680,23,5720,11.7L5760,0L5760,100L5720,100C5680,100,5600,100,5520,100C5440,100,5360,100,5280,100C5200,100,5120,100,5040,100C4960,100,4880,100,4800,100C4720,100,4640,100,4560,100C4480,100,4400,100,4320,100C4240,100,4160,100,4080,100C4000,100,3920,100,3840,100C3760,100,3680,100,3600,100C3520,100,3440,100,3360,100C3280,100,3200,100,3120,100C3040,100,2960,100,2880,100C2800,100,2720,100,2640,100C2560,100,2480,100,2400,100C2320,100,2240,100,2160,100C2080,100,2000,100,1920,100C1840,100,1760,100,1680,100C1600,100,1520,100,1440,100C1360,100,1280,100,1200,100C1120,100,1040,100,960,100C880,100,800,100,720,100C640,100,560,100,480,100C400,100,320,100,240,100C160,100,80,100,40,100L0,100Z"/></svg>